# xmcd
#
# Track frame offsets: 
#        150
#        16495
#        38117
#        57502
#        70672
#        85490
#        98570
#        123847
#        139792
#        154447
#        171257
#        188447
#        211150
#        232492
#        260392
#        273027
#        282920
#
# Disc length: 3987 seconds
#
# Revision: 0
# Processed by: cddbd v1.5.2PL0 Copyright (c) Steve Scherf et al.
# Submitted via: ExactAudioCopy v1.0b2
#
DISCID=f00f9111
DTITLE=Ray Stevens - Hit Disc For Radio Only
DYEAR=1997
DGENRE=Pop
TTITLE0=Too Drunk To Fish
TTITLE1=R.V.
TTITLE2=Virgil And The Moonshot
TTITLE3=She Loves Me Better Than Elvis
TTITLE4=The Streak
TTITLE5=Misty
TTITLE6=Shriner's Convention
TTITLE7=It's Me Again Margaret
TTITLE8=Gitarzan
TTITLE9=The Mississippi Squirerl Revival
TTITLE10=Ahab The Arab
TTITLE11=The Ballad Of The Blue Cyclone
TTITLE12=The Pirate Song (I Want To Sing And Dance)
TTITLE13=The Haircut Song
TTITLE14=Would Jesus Wear A Rolex
TTITLE15=Turn Your Radio On
TTITLE16=Everything Is Beautiful
EXTD=
EXTT0=
EXTT1=
EXTT2=
EXTT3=
EXTT4=
EXTT5=
EXTT6=
EXTT7=
EXTT8=
EXTT9=
EXTT10=
EXTT11=
EXTT12=
EXTT13=
EXTT14=
EXTT15=
EXTT16=
PLAYORDER=
